<svg width="47" height="41" viewBox="0 0 47 41" fill="none" xmlns="http://www.w3.org/2000/svg">
<path d="M42.5938 20.5H35.25V14.6429C35.25 11.4123 37.8846 8.78571 41.125 8.78571H41.8594C43.0803 8.78571 44.0625 7.80647 44.0625 6.58929V2.19643C44.0625 0.979241 43.0803 0 41.8594 0H41.125C33.0102 0 26.4375 6.55268 26.4375 14.6429V36.6071C26.4375 39.0324 28.4111 41 30.8438 41H42.5938C45.0264 41 47 39.0324 47 36.6071V24.8929C47 22.4676 45.0264 20.5 42.5938 20.5ZM16.1562 20.5H8.8125V14.6429C8.8125 11.4123 11.4471 8.78571 14.6875 8.78571H15.4219C16.6428 8.78571 17.625 7.80647 17.625 6.58929V2.19643C17.625 0.979241 16.6428 0 15.4219 0H14.6875C6.57266 0 0 6.55268 0 14.6429V36.6071C0 39.0324 1.97363 41 4.40625 41H16.1562C18.5889 41 20.5625 39.0324 20.5625 36.6071V24.8929C20.5625 22.4676 18.5889 20.5 16.1562 20.5Z" fill="black"/>
</svg>
